<svg xmlns="http://www.w3.org/2000/svg" width="60.921" height="27.916" viewBox="0 0 60.921 27.916">
  <g id="but_next" data-name="but next" transform="translate(-760 -2949)">
    <path id="Forma_1" data-name="Forma 1" d="M802.157,2975.845a13.265,13.265,0,0,1-7.174-7.134,13.341,13.341,0,0,1,0-10.437,13.538,13.538,0,0,1,24.86,0,13.177,13.177,0,0,1,0,10.437,13.5,13.5,0,0,1-17.686,7.134Zm-.693-22.562a11.823,11.823,0,0,0-4.325,4.3,11.816,11.816,0,0,0-.65,10.5,11.953,11.953,0,0,0,2.524,3.772,12.1,12.1,0,0,0,3.78,2.51,11.482,11.482,0,0,0,4.605.939,11.686,11.686,0,0,0,5.95-1.585,11.83,11.83,0,0,0,4.341-4.3,11.775,11.775,0,0,0,0-11.831,11.872,11.872,0,0,0-4.341-4.3,11.932,11.932,0,0,0-11.884,0Zm3.189,17.982a.809.809,0,0,1,0-1.13l6.6-6.561-6.6-6.738a.793.793,0,0,1,.03-1.13.815.815,0,0,1,1.151.03l7.159,7.3a.829.829,0,0,1,0,1.145l-7.159,7.09a.8.8,0,0,1-.576.249A.839.839,0,0,1,804.653,2971.265Z" opacity="0.502"/>
    <path id="Forma_1_copy_2" data-name="Forma 1 copy 2" d="M768.267,2974.921A13.5,13.5,0,0,1,773.521,2949a13.123,13.123,0,0,1,5.241,1.078,13.486,13.486,0,0,1,0,24.844,13.123,13.123,0,0,1-5.241,1.078A13.271,13.271,0,0,1,768.267,2974.921Zm-.694-22.7a11.881,11.881,0,0,0-4.341,4.328,11.907,11.907,0,0,0,0,11.905,11.838,11.838,0,0,0,4.341,4.327,11.619,11.619,0,0,0,5.948,1.595,11.42,11.42,0,0,0,4.606-.945,11.6,11.6,0,0,0,6.3-6.322,11.962,11.962,0,0,0-.65-10.561,11.862,11.862,0,0,0-4.326-4.328,11.865,11.865,0,0,0-11.883,0Zm7.513,18.094-7.159-7.135a.837.837,0,0,1,0-1.151l7.159-7.341a.811.811,0,0,1,1.151-.029.8.8,0,0,1,.031,1.136l-6.6,6.78,6.6,6.6a.821.821,0,0,1,0,1.138.84.84,0,0,1-.606.251A.8.8,0,0,1,775.086,2970.313Z" fill="#32afc5"/>
  </g>
</svg>
