<svg xmlns="http://www.w3.org/2000/svg" width="46.007" height="29.979" viewBox="0 0 46.007 29.979">
  <path id="Forma_1_copy_3" data-name="Forma 1 copy 3" d="M783.895,3240.205v-.007a18.879,18.879,0,0,1,18.68-19.186,2.493,2.493,0,0,1,2.428,2.7,2.672,2.672,0,0,1-2.651,2.7,13.357,13.357,0,0,0-8.434,3.008c.059,0,.145-.01.2-.01a10.766,10.766,0,0,1,10.7,10.793,10.467,10.467,0,1,1-20.923.007Zm-24.9,0v-.007a18.866,18.866,0,0,1,18.664-19.186,2.483,2.483,0,0,1,2.415,2.7,2.671,2.671,0,0,1-2.651,2.7,13.358,13.358,0,0,0-8.433,3.008c.06,0,.148-.01.207-.01a10.768,10.768,0,0,1,10.7,10.793,10.612,10.612,0,0,1-10.512,10.793A10.506,10.506,0,0,1,759,3240.205Z" transform="translate(-758.996 -3221.012)" opacity="0.2"/>
</svg>
