<svg xmlns="http://www.w3.org/2000/svg" width="46.008" height="29.979" viewBox="0 0 46.008 29.979">
  <path id="Forma_1" data-name="Forma 1" d="M1506.923,2976.289a2.672,2.672,0,0,1,2.652-2.7,13.355,13.355,0,0,0,8.432-3.008c-.059,0-.148.01-.207.01a10.767,10.767,0,0,1-10.7-10.793,10.61,10.61,0,0,1,10.512-10.792A10.5,10.5,0,0,1,1528,2959.793v.007a18.868,18.868,0,0,1-18.665,19.187A2.484,2.484,0,0,1,1506.923,2976.289Zm-24.928,0a2.673,2.673,0,0,1,2.651-2.7,13.356,13.356,0,0,0,8.434-3.008c-.058,0-.145.01-.2.01a10.765,10.765,0,0,1-10.7-10.793,10.467,10.467,0,1,1,20.924-.007v.007a18.881,18.881,0,0,1-18.68,19.187A2.5,2.5,0,0,1,1481.995,2976.289Z" transform="translate(-1481.995 -2949.009)" opacity="0.2"/>
</svg>
