<svg xmlns="http://www.w3.org/2000/svg" width="27.001" height="27" viewBox="0 0 27.001 27">
  <path id="Forma_1_copy_2" data-name="Forma 1 copy 2" d="M768.267,2974.921A13.5,13.5,0,0,1,773.521,2949a13.123,13.123,0,0,1,5.241,1.078,13.486,13.486,0,0,1,0,24.844,13.123,13.123,0,0,1-5.241,1.078A13.271,13.271,0,0,1,768.267,2974.921Zm-.694-22.7a11.881,11.881,0,0,0-4.341,4.328,11.907,11.907,0,0,0,0,11.905,11.838,11.838,0,0,0,4.341,4.327,11.619,11.619,0,0,0,5.948,1.595,11.42,11.42,0,0,0,4.606-.945,11.6,11.6,0,0,0,6.3-6.322,11.962,11.962,0,0,0-.65-10.561,11.862,11.862,0,0,0-4.326-4.328,11.865,11.865,0,0,0-11.883,0Zm7.513,18.094-7.159-7.135a.837.837,0,0,1,0-1.151l7.159-7.341a.811.811,0,0,1,1.151-.029.8.8,0,0,1,.031,1.136l-6.6,6.78,6.6,6.6a.821.821,0,0,1,0,1.138.84.84,0,0,1-.606.251A.8.8,0,0,1,775.086,2970.313Z" transform="translate(-760 -2949)" fill="#32afc5"/>
</svg>
