<svg xmlns="http://www.w3.org/2000/svg" width="27" height="26.833" viewBox="0 0 27 26.833">
  <path id="Forma_1" data-name="Forma 1" d="M802.157,2975.845a13.265,13.265,0,0,1-7.174-7.134,13.341,13.341,0,0,1,0-10.437,13.538,13.538,0,0,1,24.86,0,13.177,13.177,0,0,1,0,10.437,13.5,13.5,0,0,1-17.686,7.134Zm-.693-22.562a11.823,11.823,0,0,0-4.325,4.3,11.816,11.816,0,0,0-.65,10.5,11.953,11.953,0,0,0,2.524,3.772,12.1,12.1,0,0,0,3.78,2.51,11.482,11.482,0,0,0,4.605.939,11.686,11.686,0,0,0,5.95-1.585,11.83,11.83,0,0,0,4.341-4.3,11.775,11.775,0,0,0,0-11.831,11.872,11.872,0,0,0-4.341-4.3,11.932,11.932,0,0,0-11.884,0Zm3.189,17.982a.809.809,0,0,1,0-1.13l6.6-6.561-6.6-6.738a.793.793,0,0,1,.03-1.13.815.815,0,0,1,1.151.03l7.159,7.3a.829.829,0,0,1,0,1.145l-7.159,7.09a.8.8,0,0,1-.576.249A.839.839,0,0,1,804.653,2971.265Z" transform="translate(-793.921 -2950.083)" opacity="0.502"/>
</svg>
